Coordinates
version=1
nRows=32
nColumns=12
inDegrees=yes

Units are S.I. units (second, meters, Newtons, ...)
Angles are in degrees

endheader
time	SC_y	SC_z	SC_x	AC_y	AC_z	AC_x	GH_y	GH_z	GH_yy	EL_x	PS_y
       0.0              -35.43          25.98            2.0          50.76          5.409          16.53          118.8          70.44         -111.2           12.9          126.8
 0.0004036              -35.43          25.98          2.008          50.76          5.407          16.53          118.8          70.43         -111.2          12.91          126.8
 0.0008072              -35.43          25.97          2.016          50.77          5.404          16.53          118.8          70.43         -111.2          12.93          126.8
  0.001211              -35.43          25.97          2.026          50.77          5.401          16.53          118.8          70.43         -111.2          12.94          126.8
  0.001614              -35.43          25.97          2.035          50.77          5.398          16.53          118.8          70.42         -111.2          12.96          126.8
  0.002018              -35.43          25.97          2.046          50.78          5.395          16.53          118.8          70.42         -111.2          12.98          126.8
  0.002422              -35.43          25.97          2.057          50.78          5.391          16.53          118.8          70.41         -111.2           13.0          126.8
  0.002825              -35.43          25.97          2.068          50.78          5.388          16.53          118.8          70.41         -111.2          13.02          126.8
  0.003229              -35.43          25.96          2.081          50.79          5.384          16.53          118.8           70.4         -111.2          13.04          126.8
  0.003632              -35.43          25.96          2.095          50.79          5.379          16.53          118.8           70.4         -111.2          13.06          126.8
  0.004036              -35.43          25.96          2.109           50.8          5.375          16.53          118.8          70.39         -111.2          13.09          126.8
   0.00444              -35.43          25.96          2.125           50.8           5.37          16.53          118.8          70.39         -111.2          13.11          126.8
  0.004843              -35.43          25.96          2.142          50.81          5.365          16.53          118.8          70.38         -111.2          13.14          126.8
  0.005247              -35.43          25.95           2.16          50.82          5.359          16.53          118.8          70.38         -111.2          13.17          126.7
  0.005651              -35.43          25.95           2.18          50.82          5.353          16.53          118.8          70.37         -111.2          13.21          126.7
  0.006054              -35.43          25.95          2.201          50.83          5.346          16.53          118.8          70.36         -111.2          13.25          126.7
  0.006458              -35.43          25.94          2.224          50.84          5.339          16.53          118.8          70.35         -111.3          13.29          126.7
  0.006861              -35.43          25.94           2.25          50.85          5.331          16.53          118.8          70.34         -111.3          13.33          126.7
  0.007265              -35.43          25.93          2.277          50.85          5.322          16.53          118.7          70.33         -111.3          13.38          126.7
  0.007669              -35.43          25.93          2.308          50.87          5.312          16.53          118.7          70.32         -111.3          13.43          126.7
  0.008072              -35.43          25.92          2.341          50.88          5.302          16.53          118.7          70.31         -111.3          13.49          126.7
  0.008476              -35.43          25.92          2.378          50.89           5.29          16.53          118.7          70.29         -111.3          13.55          126.6
  0.008879              -35.43          25.91          2.418           50.9          5.277          16.54          118.7          70.28         -111.3          13.62          126.6
  0.009283              -35.43           25.9          2.463          50.92          5.263          16.54          118.7          70.26         -111.3           13.7          126.6
  0.009687              -35.43           25.9          2.513          50.93          5.248          16.54          118.7          70.24         -111.3          13.79          126.6
   0.01009              -35.43          25.89          2.568          50.95           5.23          16.54          118.6          70.22         -111.4          13.88          126.5
   0.01049              -35.43          25.88           2.63          50.97           5.21          16.54          118.6           70.2         -111.4          13.99          126.5
    0.0109              -35.43          25.87          2.701           51.0          5.188          16.54          118.6          70.17         -111.4          14.11          126.5
    0.0113              -35.43          25.85           2.78          51.02          5.163          16.54          118.6          70.14         -111.4          14.25          126.4
    0.0117              -35.44          25.84           2.87          51.06          5.135          16.55          118.5          70.11         -111.5          14.41          126.4
   0.01211              -35.44          25.82          2.972          51.09          5.103          16.55          118.5          70.07         -111.5          14.58          126.3
   0.01251              -35.44          25.81           3.09          51.13          5.065          16.55          118.5          70.03         -111.5          14.79          126.2
